<svg width="17" height="17" viewBox="0 0 17 17" fill="none" xmlns="http://www.w3.org/2000/svg">
<path d="M6.12778 7.51364H3.75514C3.43088 7.51364 3.16198 7.24473 3.16198 6.92045C3.16198 6.59618 3.43088 6.32727 3.75514 6.32727H6.12778C6.45204 6.32727 6.72094 6.59618 6.72094 6.92045C6.72094 7.24473 6.45204 7.51364 6.12778 7.51364Z" fill="#F00000"/>
<path d="M12.6445 17.0046H4.35603C4.03177 17.0046 3.76287 16.7357 3.76287 16.4114C3.76287 16.0871 4.03177 15.8182 4.35603 15.8182H12.6445C14.2421 15.8182 15.1041 15.0036 15.2069 13.4059L15.6182 6.87304C15.6577 6.3115 15.4916 5.75786 15.1516 5.30704C14.9538 5.04604 15.0092 4.67431 15.2702 4.47658C15.5312 4.27885 15.9029 4.33422 16.1006 4.59522C16.6068 5.2754 16.8599 6.10586 16.8045 6.9521L16.3932 13.485C16.2509 15.7233 14.8827 17.0046 12.6445 17.0046Z" fill="#F00000"/>
<path d="M1.73024 15.7866C1.54043 15.7866 1.35061 15.6917 1.23198 15.5177C0.868175 14.9641 0.654646 14.276 0.607193 13.4771L0.195936 6.95212C0.132665 5.96348 0.472744 5.01438 1.1529 4.29465C1.82515 3.57492 2.7742 3.16365 3.75489 3.16365C4.00798 3.16365 4.25315 3.01337 4.37178 2.7761L4.94121 1.6451C5.40783 0.71973 6.57833 0 7.59858 0H9.40969C10.4299 0 11.5925 0.71973 12.0591 1.63719L12.6286 2.79192C12.7472 3.01337 12.9845 3.16365 13.2455 3.16365C13.5697 3.16365 13.8386 3.43256 13.8386 3.75683C13.8386 4.08111 13.5697 4.35002 13.2455 4.35002C12.5416 4.35002 11.901 3.95456 11.5688 3.32974L10.9915 2.17501C10.7305 1.65301 9.98704 1.19428 9.40178 1.19428H7.59067C7.00542 1.19428 6.26198 1.65301 5.99308 2.18292L5.43156 3.31392C5.09939 3.95456 4.45878 4.35002 3.75489 4.35002C3.09056 4.35002 2.47366 4.61893 2.01496 5.10138C1.56416 5.58384 1.3348 6.21657 1.38226 6.87302L1.79351 13.406C1.82514 13.9833 1.97542 14.4895 2.2285 14.8612C2.4104 15.1381 2.3313 15.5019 2.0624 15.6838C1.95959 15.755 1.84097 15.7866 1.73024 15.7866Z" fill="#F00000"/>
<path d="M8.50018 13.8411C7.7963 13.8411 7.10823 13.6038 6.5546 13.1688C6.29361 12.9632 6.25407 12.5914 6.45179 12.3384C6.65741 12.0774 7.02914 12.0378 7.28222 12.2355C7.63021 12.5044 8.05729 12.6547 8.50018 12.6547C9.59159 12.6547 10.4774 11.7689 10.4774 10.6774C10.4774 10.2978 10.3746 9.93399 10.1768 9.62553C10.0029 9.34871 10.0819 8.98489 10.3587 8.80298C10.6356 8.62898 10.9994 8.70807 11.1813 8.98489C11.4976 9.48317 11.6716 10.0684 11.6716 10.6695C11.6637 12.4254 10.248 13.8411 8.50018 13.8411Z" fill="#F00000"/>
<path d="M0.591183 17.0044C0.440915 17.0044 0.290648 16.9491 0.172016 16.8304C-0.0573388 16.6011 -0.0573388 16.2214 0.172016 15.9921L15.9897 0.173854C16.219 -0.0555101 16.5986 -0.0555101 16.828 0.173854C17.0573 0.403219 17.0573 0.782857 16.828 1.01222L1.01035 16.8304C0.891717 16.9491 0.74145 17.0044 0.591183 17.0044Z" fill="#F00000"/>
</svg>
