<svg width="17" height="18" viewBox="0 0 17 18" fill="none" xmlns="http://www.w3.org/2000/svg">
<path d="M2.86819 14.6564C2.33639 14.6564 1.83947 14.4862 1.48204 14.1703C1.0287 13.7734 0.810753 13.174 0.889215 12.526L1.21178 9.90151C1.2728 9.4074 1.59537 8.75128 1.97024 8.39487L9.12768 1.3558C10.9149 -0.401951 12.7805 -0.450552 14.6723 1.21C16.5641 2.87055 16.6164 4.604 14.8292 6.36175L7.67179 13.4008C7.30563 13.7653 6.62563 14.1055 6.09383 14.1866L3.28665 14.6321C3.13845 14.6402 3.00768 14.6564 2.86819 14.6564ZM11.9261 1.2019C11.2549 1.2019 10.6708 1.59071 10.0779 2.17393L2.9205 9.22117C2.74614 9.39128 2.54562 9.79629 2.51075 10.0312L2.18819 12.6556C2.15332 12.9229 2.22306 13.1416 2.37998 13.2793C2.53691 13.417 2.77229 13.4656 3.05998 13.4251L5.86716 12.9797C6.11998 12.9392 6.53845 12.7285 6.7128 12.5584L13.8702 5.51932C14.9513 4.45009 15.3436 3.46186 13.7656 2.08482C13.0682 1.4611 12.4667 1.2019 11.9261 1.2019Z" fill="#0070F0"/>
<path d="M13.1557 7.71429C13.1383 7.71429 13.1121 7.71429 13.0947 7.71429C10.3747 7.46319 8.18651 5.54347 7.76805 3.0324C7.71574 2.70029 7.95984 2.39248 8.31728 2.33578C8.67471 2.28718 9.006 2.51398 9.06702 2.84609C9.3983 4.80635 11.107 6.31299 13.2342 6.5074C13.5916 6.5398 13.8532 6.83951 13.8183 7.17158C13.7747 7.47939 13.487 7.71429 13.1557 7.71429Z" fill="#0070F0"/>
<path d="M16.3462 17.2727H0.653846C0.29641 17.2727 0 16.9973 0 16.6652C0 16.3331 0.29641 16.0577 0.653846 16.0577H16.3462C16.7036 16.0577 17 16.3331 17 16.6652C17 16.9973 16.7036 17.2727 16.3462 17.2727Z" fill="#0070F0"/>
</svg>
