<svg width="14" height="17" viewBox="0 0 14 17" fill="none" xmlns="http://www.w3.org/2000/svg">
<path d="M9.4 17H4.6C1.072 17 0 15.9405 0 12.4535V4.54651C0 1.05954 1.072 0 4.6 0H9.4C12.928 0 14 1.05954 14 4.54651V12.4535C14 15.9405 12.928 17 9.4 17ZM4.6 1.18605C1.736 1.18605 1.2 1.72372 1.2 4.54651V12.4535C1.2 15.2763 1.736 15.814 4.6 15.814H9.4C12.264 15.814 12.8 15.2763 12.8 12.4535V4.54651C12.8 1.72372 12.264 1.18605 9.4 1.18605H4.6Z" fill="#0070F0"/>
<path d="M8.6 3.9535H5.4C5.072 3.9535 4.8 3.68467 4.8 3.36048C4.8 3.03629 5.072 2.76746 5.4 2.76746H8.6C8.928 2.76746 9.2 3.03629 9.2 3.36048C9.2 3.68467 8.928 3.9535 8.6 3.9535Z" fill="#0070F0"/>
<path d="M7.00016 14.7149C5.98416 14.7149 5.16016 13.9005 5.16016 12.8963C5.16016 11.8921 5.98416 11.0777 7.00016 11.0777C8.01616 11.0777 8.84016 11.8921 8.84016 12.8963C8.84016 13.9005 8.01616 14.7149 7.00016 14.7149ZM7.00016 12.2558C6.64816 12.2558 6.36016 12.5405 6.36016 12.8884C6.36016 13.2363 6.64816 13.521 7.00016 13.521C7.35216 13.521 7.64016 13.2363 7.64016 12.8884C7.64016 12.5405 7.35216 12.2558 7.00016 12.2558Z" fill="#0070F0"/>
</svg>
