<svg width="20" height="17" viewBox="0 0 20 17" fill="none" xmlns="http://www.w3.org/2000/svg">
<path d="M9.99071 11.6253C8.06692 11.6253 6.50558 10.2241 6.50558 8.49753C6.50558 6.771 8.06692 5.36975 9.99071 5.36975C11.9145 5.36975 13.4758 6.771 13.4758 8.49753C13.4758 10.2241 11.9145 11.6253 9.99071 11.6253ZM9.99071 6.62086C8.83829 6.62086 7.89963 7.46328 7.89963 8.49753C7.89963 9.53178 8.83829 10.3742 9.99071 10.3742C11.1431 10.3742 12.0818 9.53178 12.0818 8.49753C12.0818 7.46328 11.1431 6.62086 9.99071 6.62086Z" fill="#0070F0"/>
<path d="M12.974 16.9966C12.7788 16.9966 12.5836 16.9716 12.3885 16.9299C11.8123 16.7881 11.329 16.4628 11.0223 16.004L10.9108 15.8372C10.3625 14.9865 9.60967 14.9865 9.06134 15.8372L8.95911 15.9957C8.65242 16.4628 8.16914 16.7964 7.59294 16.9299C7.00743 17.0717 6.40335 16.9966 5.89219 16.7214L4.29368 15.8956C3.72677 15.6037 3.31784 15.1283 3.14126 14.5528C2.97398 13.9772 3.05762 13.3851 3.3829 12.8763C3.65242 12.4509 3.72677 12.0672 3.56877 11.8253C3.41078 11.5835 3.01115 11.4417 2.46283 11.4417C1.10595 11.4417 0 10.4491 0 9.23136V7.76339C0 6.54564 1.10595 5.55309 2.46283 5.55309C3.01115 5.55309 3.41078 5.4113 3.56877 5.16942C3.72677 4.92754 3.66171 4.54386 3.3829 4.11848C3.05762 3.6097 2.97398 3.00916 3.14126 2.44199C3.30855 1.86648 3.71747 1.39106 4.29368 1.09913L5.90149 0.273398C6.95167 -0.285432 8.33643 0.0398574 8.9684 0.999043L9.07993 1.16586C9.62825 2.01661 10.381 2.01661 10.9294 1.16586L11.0316 1.00738C11.6636 0.0398574 13.0483 -0.285432 14.1078 0.281739L15.7063 1.10747C16.2732 1.3994 16.6822 1.87482 16.8587 2.45033C17.026 3.02585 16.9424 3.61804 16.6171 4.12682C16.3476 4.5522 16.2732 4.93588 16.4312 5.17776C16.5892 5.41964 16.9888 5.56143 17.5372 5.56143C18.8941 5.56143 20 6.55398 20 7.77173V9.2397C20 10.4575 18.8941 11.45 17.5372 11.45C16.9888 11.45 16.5892 11.5918 16.4312 11.8337C16.2732 12.0756 16.3383 12.4592 16.6171 12.8846C16.9424 13.3934 17.0353 13.9939 16.8587 14.5611C16.6914 15.1366 16.2825 15.612 15.7063 15.904L14.0985 16.7297C13.7454 16.9049 13.3643 16.9966 12.974 16.9966ZM9.99071 13.9105C10.8178 13.9105 11.5892 14.3776 12.119 15.2033L12.2212 15.3618C12.3327 15.537 12.5186 15.6621 12.7416 15.7121C12.9647 15.7622 13.1877 15.7371 13.3736 15.6371L14.9814 14.803C15.223 14.6779 15.4089 14.4694 15.4833 14.2191C15.5576 13.9689 15.5204 13.7103 15.381 13.4935C14.8513 12.6761 14.7862 11.8337 15.1952 11.1914C15.6041 10.5492 16.4498 10.1822 17.5093 10.1822C18.1041 10.1822 18.5781 9.75683 18.5781 9.22302V7.75505C18.5781 7.22958 18.1041 6.79586 17.5093 6.79586C16.4498 6.79586 15.6041 6.42887 15.1952 5.78663C14.7862 5.14439 14.8513 4.30198 15.381 3.48459C15.5204 3.26773 15.5576 3.00916 15.4833 2.75894C15.4089 2.50872 15.2323 2.30854 14.9907 2.17509L13.3829 1.34935C12.9833 1.1325 12.4535 1.25761 12.2119 1.6246L12.1097 1.78307C11.5799 2.60881 10.8085 3.07589 9.98141 3.07589C9.15427 3.07589 8.3829 2.60881 7.85316 1.78307L7.75093 1.61626C7.51859 1.26595 6.99814 1.14084 6.59851 1.34935L4.99071 2.18343C4.74907 2.30854 4.5632 2.51706 4.48885 2.76728C4.4145 3.0175 4.45167 3.27607 4.59108 3.49293C5.12082 4.31032 5.18587 5.15274 4.77695 5.79497C4.36803 6.43721 3.5223 6.8042 2.46283 6.8042C1.86803 6.8042 1.39405 7.22958 1.39405 7.76339V9.23136C1.39405 9.75683 1.86803 10.1905 2.46283 10.1905C3.5223 10.1905 4.36803 10.5575 4.77695 11.1998C5.18587 11.842 5.12082 12.6844 4.59108 13.5018C4.45167 13.7187 4.4145 13.9772 4.48885 14.2275C4.5632 14.4777 4.73978 14.6779 4.98141 14.8113L6.58922 15.6371C6.78439 15.7455 7.01673 15.7705 7.23048 15.7205C7.45353 15.6704 7.63941 15.537 7.76022 15.3618L7.86245 15.2033C8.39219 14.3859 9.16357 13.9105 9.99071 13.9105Z" fill="#0070F0"/>
</svg>
