<svg width="17" height="17" viewBox="0 0 17 17" fill="none" xmlns="http://www.w3.org/2000/svg">
<path d="M8.49988 9.09302C5.61497 9.09302 3.267 7.05302 3.267 4.54651C3.267 2.04 5.61497 0 8.49988 0C11.3848 0 13.7328 2.04 13.7328 4.54651C13.7328 7.05302 11.3848 9.09302 8.49988 9.09302ZM8.49988 1.18605C6.37033 1.18605 4.6321 2.69628 4.6321 4.54651C4.6321 6.39674 6.37033 7.90698 8.49988 7.90698C10.6294 7.90698 12.3677 6.39674 12.3677 4.54651C12.3677 2.69628 10.6294 1.18605 8.49988 1.18605Z" fill="#0070F0"/>
<path d="M16.3174 17C15.9443 17 15.6349 16.7311 15.6349 16.407C15.6349 13.6791 12.4316 11.4651 8.50006 11.4651C4.56853 11.4651 1.3651 13.6791 1.3651 16.407C1.3651 16.7311 1.05568 17 0.68255 17C0.309423 17 0 16.7311 0 16.407C0 13.0307 3.81317 10.2791 8.50006 10.2791C13.1869 10.2791 17 13.0307 17 16.407C17 16.7311 16.6906 17 16.3174 17Z" fill="#0070F0"/>
</svg>
